<svg width="72" height="72" viewBox="0 0 72 72" fill="none" xmlns="http://www.w3.org/2000/svg">
<circle cx="36" cy="36" r="35" fill="white" stroke="#DBDBDB" stroke-width="2"/>
<path fill-rule="evenodd" clip-rule="evenodd" d="M58.0654 46.7775C58.0654 46.0782 58.0263 45.4959 57.6769 45.146C57.4821 44.9518 57.2234 44.8482 56.8857 44.8482C56.5485 44.8482 56.3024 44.9518 56.1084 45.146C55.7581 45.4959 55.7191 46.0782 55.7191 46.7775C55.7191 47.4764 55.7581 48.0721 56.1084 48.4216C56.3024 48.6158 56.5485 48.7195 56.8857 48.7195C57.2234 48.7195 57.4821 48.6158 57.6769 48.4216C58.0263 48.0721 58.0654 47.4764 58.0654 46.7775ZM59.7507 46.7775C59.7507 48.0075 59.5949 48.7711 58.9855 49.4054C58.5706 49.8459 57.8844 50.2339 56.8857 50.2339C55.8875 50.2339 55.2139 49.8459 54.7994 49.4054C54.19 48.7711 54.035 48.0075 54.035 46.7775C54.035 45.5605 54.19 44.7966 54.7994 44.1622C55.2139 43.7222 55.8875 43.3337 56.8857 43.3337C57.8844 43.3337 58.5706 43.7222 58.9855 44.1622C59.5949 44.7966 59.7507 45.5605 59.7507 46.7775ZM51.43 46.1562C51.417 45.8584 51.3783 45.6771 51.275 45.4313C51.0928 45.0298 50.7173 44.732 50.1466 44.732C49.5771 44.732 49.2013 45.0298 49.0194 45.4313C48.9161 45.6771 48.8771 45.8584 48.8636 46.1562H51.43ZM53.0889 46.5573V47.3082H48.8636C48.8636 48.1758 49.3953 48.8101 50.3415 48.8101C51.0802 48.8101 51.4434 48.6028 51.8705 48.1758L52.8948 49.1725C52.2078 49.8589 51.5467 50.2339 50.3284 50.2339C48.7343 50.2339 47.2048 49.509 47.2048 46.7775C47.2048 44.5763 48.3971 43.3337 50.1466 43.3337C52.0263 43.3337 53.0889 44.7059 53.0889 46.5573ZM44.289 46.7775C44.289 45.6771 44.1466 44.8482 43.1354 44.8482C42.1245 44.8482 41.9952 45.6771 41.9952 46.7775C41.9952 47.8779 42.1245 48.7195 43.1354 48.7195C44.1466 48.7195 44.289 47.8779 44.289 46.7775ZM44.289 40.9387H45.9739V50.1563H44.328V49.522C43.8615 50.0401 43.3689 50.2339 42.6562 50.2339C41.9952 50.2339 41.3732 50.0011 40.9973 49.6256C40.3237 48.9527 40.3103 47.7873 40.3103 46.7775C40.3103 45.7677 40.3237 44.6153 40.9973 43.942C41.3732 43.5669 41.9825 43.3337 42.6427 43.3337C43.3298 43.3337 43.8489 43.5149 44.289 44.007V40.9387ZM38.1975 40.4596C37.6145 40.4596 37.1354 40.9257 37.1354 41.5084C37.1354 42.0907 37.6145 42.5698 38.1975 42.5698C38.7808 42.5698 39.2478 42.0907 39.2478 41.5084C39.2478 40.9257 38.7808 40.4596 38.1975 40.4596ZM37.3554 50.1563H39.0407V43.4113H37.3554V50.1563ZM34.9058 43.4113H36.6818L34.2061 50.1563H32.8849L30.3962 43.4113H32.1714L33.5451 47.5801L34.9058 43.4113Z" fill="black"/>
<path fill-rule="evenodd" clip-rule="evenodd" d="M42.1342 29.7565L41.2613 29.9966C40.6532 30.2364 40.1089 30.6504 39.65 31.2803V30.1262L37.4949 30.1059V39.1671H39.7375V34.8326C39.7375 34.091 39.8254 33.5692 40.0222 33.2413C40.1727 32.8943 40.4563 32.6107 40.8057 32.3713C41.197 32.1088 41.6103 31.978 42.0472 31.978L42.7428 32.0231L42.722 29.7122L42.1342 29.7565ZM24.5833 39.1663H26.8479V27.361H24.5833V39.1663ZM33.5976 34.5498L33.1627 34.7871L32.0306 35.0707C31.5506 35.1361 31.1813 35.245 30.9633 35.3755C30.5943 35.6152 30.4186 35.9435 30.4186 36.4003C30.4186 36.8139 30.5292 37.0959 30.746 37.2934C30.9633 37.4657 31.2252 37.5535 31.5506 37.5535C32.0738 37.5535 32.531 37.4007 32.9671 37.0959C33.3799 36.7912 33.5976 36.2463 33.5976 35.4636V34.5498ZM35.9732 32.5005V39.1667H33.7062V38.2292C33.0094 38.8392 32.0306 39.1443 30.7904 39.1667C30.0264 39.1443 29.3955 38.9278 28.9379 38.5348C28.4168 38.0557 28.1561 37.4007 28.1772 36.5973C28.1561 35.4409 28.5681 34.6359 29.4167 34.1349C29.9191 33.8504 30.5711 33.6558 31.3761 33.5457L33.1192 33.2641C33.4662 33.1121 33.6411 32.8703 33.6411 32.5668C33.6191 32.1966 33.5101 31.9345 33.2494 31.804C32.989 31.6509 32.6188 31.5627 32.1405 31.5858C31.573 31.5627 31.1813 31.7167 30.9421 32.0231C30.7904 32.1966 30.6586 32.4587 30.6159 32.8504H28.3505C28.4168 32.0231 28.6129 31.3676 29.0038 30.8674C29.6136 30.0616 30.6805 29.6467 32.2052 29.6695C33.1847 29.6467 34.0548 29.8442 34.8386 30.2579C35.5782 30.65 35.9732 31.4115 35.9732 32.5005ZM17.8336 29.6049C18.5308 29.6049 19.1622 29.7999 19.7719 30.1929C20.3166 30.5635 20.7523 31.0856 21.0569 31.6951H23.4297C23.0815 30.4326 22.4062 29.3863 21.3828 28.5821C20.339 27.7532 19.141 27.3395 17.8336 27.361C16.202 27.3395 14.8503 27.9055 13.7186 29.0811C12.565 30.2359 12 31.6074 12 33.2413C12 34.8525 12.565 36.2702 13.7186 37.4239C14.8503 38.5551 16.202 39.1228 17.8336 39.1228C19.141 39.1228 20.339 38.7299 21.3828 37.9237C22.4062 37.0959 23.0815 36.0732 23.4297 34.8098H21.0569C20.7523 35.4201 20.3166 35.9191 19.7719 36.3121C19.1622 36.6839 18.5308 36.8793 17.8336 36.8793C16.8329 36.8793 15.9844 36.5088 15.286 35.8102C14.5692 35.0926 14.2202 34.245 14.2414 33.2413C14.2202 32.2405 14.5692 31.39 15.286 30.6724C15.9844 29.9751 16.8329 29.6049 17.8336 29.6049ZM50.1466 34.4612C50.1238 33.7431 49.8846 33.1539 49.4262 32.6753C48.9262 32.1755 48.3388 31.9345 47.6416 31.9568C46.9672 31.9345 46.379 32.1755 45.9006 32.6753C45.421 33.1539 45.159 33.7431 45.159 34.4612C45.159 35.1361 45.421 35.7245 45.9006 36.2259C46.379 36.7282 46.9672 36.9651 47.6416 36.9651C48.3388 36.9651 48.9262 36.7282 49.405 36.2259C49.8846 35.7245 50.1238 35.1361 50.1466 34.4612ZM50.9943 31.0856C51.9092 32.0231 52.3664 33.1539 52.3664 34.4612C52.3664 35.768 51.9092 36.9001 50.9943 37.8152C50.0583 38.7526 48.9262 39.2305 47.6416 39.2305C46.3574 39.2305 45.2457 38.7526 44.3325 37.8152C43.3948 36.9001 42.9388 35.768 42.9388 34.4612C42.9388 33.1539 43.3948 32.0231 44.3325 31.0856C45.2457 30.1498 46.3574 29.6906 47.6416 29.6906C48.9262 29.6906 50.0583 30.1498 50.9943 31.0856ZM53.7616 34.3303H59.7506V32.3051H53.7616V34.3303ZM46.9021 27.8612H48.9271V22.0001H46.9021V27.8612ZM58.2264 24.5718L52.7589 30.0393L51.3226 28.6012L56.7885 23.1354L58.2264 24.5718Z" fill="#DA291C"/>
</svg>
